<?xml version="1.0" standalone="no"?>
<!DOCTYPE svg PUBLIC "-//W3C//DTD SVG 20010904//EN"
 "http://www.w3.org/TR/2001/REC-SVG-20010904/DTD/svg10.dtd">
<svg version="1.0" xmlns="http://www.w3.org/2000/svg"
 width="260.000000pt" height="260.000000pt" viewBox="0 0 260.000000 260.000000"
 preserveAspectRatio="xMidYMid meet">
<metadata>
Created by potrace 1.14, written by Peter Selinger 2001-2017
</metadata>
<g transform="translate(0.000000,260.000000) scale(0.100000,-0.100000)"
fill="#000000" stroke="none">
<path d="M978 1893 c-105 -34 -108 -36 -108 -64 0 -29 1 -29 55 -29 l55 0 0
-443 c0 -331 -3 -446 -12 -455 -7 -7 -29 -12 -50 -12 -37 0 -38 -1 -38 -35 l0
-35 185 0 185 0 0 35 c0 32 -3 35 -29 35 -16 0 -34 6 -40 14 -8 9 -11 87 -9
262 l3 249 68 13 c88 17 141 3 174 -47 22 -33 23 -42 23 -250 0 -234 -2 -241
-52 -241 -25 0 -28 -3 -28 -35 l0 -35 185 0 185 0 0 35 c0 34 -1 35 -39 35
-21 0 -43 6 -49 13 -6 7 -12 108 -15 257 -4 271 -10 302 -62 354 -69 70 -180
70 -324 1 l-71 -34 -2 222 -3 222 -40 2 c-23 1 -86 -14 -147 -34z"/>
</g>
</svg>
